<svg width="384" height="384" viewBox="0 0 384 384" fill="none" xmlns="http://www.w3.org/2000/svg">
<path d="M383.377 191.946C383.377 198.272 383.025 204.481 382.439 210.572C380.21 233.182 374.112 254.621 364.73 274.302C333.885 338.617 268.21 383.017 192.096 383.017C86.4279 383.134 0.697403 297.498 0.697403 191.946C0.697403 86.3937 86.428 0.87439 191.979 0.87439C216.607 0.87439 240.063 5.56038 261.642 13.9952C251.791 20.6727 242.291 28.1703 233.143 36.6051C224.934 44.1027 217.428 51.9517 210.626 60.1522C199.836 72.9215 190.806 86.3937 183.417 100.1C136.389 104.435 99.4458 143.914 99.4458 192.063C99.4458 243.14 140.845 284.494 191.979 284.494C199.25 284.494 206.404 283.674 213.206 282.034C229.156 278.285 243.581 270.319 255.192 259.541C273.135 242.671 284.394 218.773 284.394 192.18C284.394 154.575 261.876 122.242 229.625 107.832C231.501 93.4227 234.668 79.8333 238.655 67.2983C245.34 46.3285 254.722 28.6389 265.864 15.8696C334.824 44.6884 383.26 112.87 383.26 192.18L383.377 191.946Z" fill="#6366F1"/>
<path d="M222.168 145.374H144.647V174.896H222.168V145.374Z" fill="#6366F1"/>
<path d="M198.83 174.896H167.634V248.232H198.83V174.896Z" fill="#6366F1"/>
</svg>
